<svg xmlns="http://www.w3.org/2000/svg" xmlns:xlink="http://www.w3.org/1999/xlink" width="25" height="24" viewBox="0 0 25 24">
    <defs>
        <path id="prefix__a" d="M0 0.212L0.923 0.212 0.923 0.923 0 0.923z"/>
        <path id="prefix__c" d="M0.808 0.091L1.731 0.091 1.731 0.923 0.808 0.923z"/>
        <path id="prefix__e" d="M0.012 0.184L0.935 0.184 0.935 0.923 0.012 0.923z"/>
        <path id="prefix__g" d="M0.165 0.212L1.088 0.212 1.088 0.923 0.165 0.923z"/>
        <path id="prefix__i" d="M0.017 0.184L0.941 0.184 0.941 0.923 0.017 0.923z"/>
        <path id="prefix__k" d="M0.903 0.091L1.826 0.091 1.826 0.923 0.903 0.923z"/>
        <path id="prefix__m" d="M0.307 0.091L1.23 0.091 1.23 0.923 0.307 0.923z"/>
        <path id="prefix__o" d="M0.242 0.09L1.165 0.09 1.165 0.923 0.242 0.923z"/>
        <path id="prefix__q" d="M0.361 0.091L1.284 0.091 1.284 0.923 0.361 0.923z"/>
        <path id="prefix__s" d="M0.217 0.091L1.14 0.091 1.14 0.923 0.217 0.923z"/>
        <path id="prefix__u" d="M0.319 0.212L1.242 0.212 1.242 0.923 0.319 0.923z"/>
        <path id="prefix__w" d="M0.09 0.091L1.013 0.091 1.013 0.923 0.09 0.923z"/>
        <path id="prefix__y" d="M0.049 0.184L0.972 0.184 0.972 0.923 0.049 0.923z"/>
        <path id="prefix__A" d="M0.112 0.094L1.035 0.094 1.035 0.923 0.112 0.923z"/>
        <path id="prefix__C" d="M0.118 0.091L1.041 0.091 1.041 0.923 0.118 0.923z"/>
        <path id="prefix__E" d="M0.653 0.091L1.576 0.091 1.576 0.923 0.653 0.923z"/>
        <path id="prefix__G" d="M0.785 0.196L1.708 0.196 1.708 0.923 0.785 0.923z"/>
        <path id="prefix__I" d="M0.083 0.212L1.006 0.212 1.006 0.923 0.083 0.923z"/>
        <path id="prefix__K" d="M0.541 0.091L1.464 0.091 1.464 0.923 0.541 0.923z"/>
        <path id="prefix__M" d="M0.021 0.196L0.944 0.196 0.944 0.923 0.021 0.923z"/>
        <path id="prefix__O" d="M0.188 0.09L1.111 0.09 1.111 0.923 0.188 0.923z"/>
        <path id="prefix__Q" d="M0.264 0.091L1.187 0.091 1.187 0.923 0.264 0.923z"/>
        <path id="prefix__S" d="M0.283 0.091L1.206 0.091 1.206 0.923 0.283 0.923z"/>
    </defs>
    <g fill="none" fill-rule="evenodd">
        <path fill-rule="nonzero" d="M0 0H24V24H0z"/>
        <g>
            <path fill="#008B44" d="M21.529 5.599L24 3.26 22.824 0.924z" transform="translate(0 8)"/>
            <path fill="#F37820" d="M20.703 5.599L23.176 3.26 22.001 0.924z" transform="translate(0 8)"/>
            <g>
                <path fill="#6C6E70" d="M5.272 3.927c-.092.19-.274.327-.492.355H1.46l.267-.956H5.08c.122.03.217.127.246.25.003.026.007.055.007.082l-.003.045-.001.016-.057.208zM2.25 1.455H5.61c.09.023.17.083.215.163.014.058.024.116.024.177 0 .033-.003.066-.008.097l-.009.03-.034.118c-.084.203-.276.351-.505.378H1.98l.27-.963zm3.498 3.602c.116-.089.191-.199.227-.33l.393-1.4c.034-.128.019-.235-.047-.322-.067-.085-.166-.13-.296-.13.13 0 .253-.044.37-.132.114-.089.188-.197.224-.325l.39-1.399c.04-.136.028-.249-.038-.337-.063-.09-.16-.133-.296-.133H1.577L.28 5.189h5.1c.13 0 .253-.043.368-.132zM12.354.552L11.842 2.417 8.163 2.417 8.674.552 7.76.552 6.489 5.178 7.402 5.178 7.913 3.321 11.591 3.321 11.081 5.178 11.996 5.178 13.268.552zM13.535 5.193L12.613 5.193 13.894.568 14.816.568zM21.22.563L17.397 3.801 16.065 1.587 15.449.563 15.433.563 15.143 1.615 14.16 5.175 15.076 5.175 15.763 2.679 17.224 5.18 19.639 2.967 19.033 5.175 19.948 5.175 20.841 1.938 21.22.563z" transform="translate(0 8) translate(0 .389)"/>
                <g transform="translate(0 8) translate(0 .389) translate(0 5.538)">
                    <mask id="prefix__b" fill="#fff">
                        <use xlink:href="#prefix__a"/>
                    </mask>
                    <path fill="#6C6E70" d="M.284.602h.062C.424.602.48.593.516.574c.035-.021.058-.053.07-.1C.597.422.592.387.568.368.543.346.493.336.41.336H.35L.284.602zm-.098.41h.058c.055 0 .096-.003.126-.008C.4 1.001.421.993.44.983.461.972.484.956.498.934.513.912.524.89.53.864.538.836.538.811.531.788.522.766.505.749.487.738.473.731.455.724.438.721.418.717.393.717.364.717H.259l-.073.295zM0 1.137L.221.212h.25c.07 0 .122.001.153.009C.656.229.683.24.7.258c.025.02.044.049.052.083C.76.374.76.41.75.454.741.503.72.544.686.576.653.612.613.633.564.646.62.654.659.679.68.72c.023.04.027.092.013.153C.685.911.669.947.648.982c-.024.034-.05.062-.082.085-.032.026-.07.044-.112.055-.043.011-.11.015-.204.015H0z" mask="url(#prefix__b)"/>
                </g>
                <g transform="translate(0 8) translate(0 .389) translate(0 5.538)">
                    <mask id="prefix__d" fill="#fff">
                        <use xlink:href="#prefix__c"/>
                    </mask>
                    <path fill="#6C6E70" d="M0.891 0.895L1.056 0.211 1.173 0.211 1.112 0.463 1.47 0.463 1.53 0.211 1.648 0.211 1.485 0.895 1.367 0.895 1.446 0.563 1.089 0.563 1.009 0.895z" mask="url(#prefix__d)"/>
                </g>
                <g transform="translate(0 8) translate(0 .389) translate(1.846 5.538)">
                    <mask id="prefix__f" fill="#fff">
                        <use xlink:href="#prefix__e"/>
                    </mask>
                    <path fill="#6C6E70" d="M.44.784h.272L.664.573C.66.558.659.543.654.526L.652.466C.642.488.63.505.62.523.61.54.6.556.592.573L.44.783zm.353.362L.739.91H.35l-.17.236H.012L.719.184l.243.962h-.17z" mask="url(#prefix__f)"/>
                </g>
                <g transform="translate(0 8) translate(0 .389) translate(2.77 5.538)">
                    <mask id="prefix__h" fill="#fff">
                        <use xlink:href="#prefix__g"/>
                    </mask>
                    <path fill="#6C6E70" d="M.452.605h.03c.08 0 .142-.008.173-.027C.687.559.708.527.72.479.73.43.725.392.7.372.674.349.624.34.541.34H.515L.452.605zM.414.723l-.1.414H.165L.387.212h.222c.065 0 .115.002.149.01.035.008.061.022.084.04C.867.286.88.315.89.35.898.384.895.423.888.465.869.54.837.597.79.64.74.683.68.707.604.717l.235.42H.66L.432.723H.414z" mask="url(#prefix__h)"/>
                </g>
                <g transform="translate(0 8) translate(0 .389) translate(3.692 5.538)">
                    <mask id="prefix__j" fill="#fff">
                        <use xlink:href="#prefix__i"/>
                    </mask>
                    <path fill="#6C6E70" d="M.444.784h.273L.67.573.66.526.656.466C.65.488.635.505.626.523l-.03.05-.152.21zm.353.362L.744.91H.356l-.171.236H.017L.724.184l.242.962H.797z" mask="url(#prefix__j)"/>
                </g>
                <g transform="translate(0 8) translate(0 .389) translate(3.692 5.538)">
                    <mask id="prefix__l" fill="#fff">
                        <use xlink:href="#prefix__k"/>
                    </mask>
                    <path fill="#6C6E70" d="M1.414 0.306L1.271 0.895 1.154 0.895 1.294 0.306 1.103 0.306 1.125 0.211 1.627 0.211 1.604 0.306z" mask="url(#prefix__l)"/>
                </g>
                <g transform="translate(0 8) translate(0 .389) translate(5.538 5.538)">
                    <mask id="prefix__n" fill="#fff">
                        <use xlink:href="#prefix__m"/>
                    </mask>
                    <path fill="#6C6E70" d="M0.627 0.895L0.791 0.211 0.909 0.211 0.744 0.895z" mask="url(#prefix__n)"/>
                </g>
                <g transform="translate(0 8) translate(0 .389) translate(6.462 5.538)">
                    <mask id="prefix__p" fill="#fff">
                        <use xlink:href="#prefix__o"/>
                    </mask>
                    <path fill="#6C6E70" d="M.297.895L.469.183l.36.42.03.038.029.045L1 .21h.11l-.17.71L.572.495C.562.485.552.473.545.46.535.448.527.433.521.42L.406.894H.297z" mask="url(#prefix__p)"/>
                </g>
                <g transform="translate(0 8) translate(0 .389) translate(7.385 5.538)">
                    <mask id="prefix__r" fill="#fff">
                        <use xlink:href="#prefix__q"/>
                    </mask>
                    <path fill="#6C6E70" d="M0.87 0.306L0.73 0.895 0.612 0.895 0.754 0.306 0.561 0.306 0.583 0.211 1.085 0.211 1.063 0.306z" mask="url(#prefix__r)"/>
                </g>
                <g transform="translate(0 8) translate(0 .389) translate(8.308 5.538)">
                    <mask id="prefix__t" fill="#fff">
                        <use xlink:href="#prefix__s"/>
                    </mask>
                    <path fill="#6C6E70" d="M0.395 0.895L0.558 0.211 0.962 0.211 0.94 0.306 0.653 0.306 0.612 0.479 0.899 0.479 0.876 0.573 0.589 0.573 0.535 0.796 0.822 0.796 0.799 0.895z" mask="url(#prefix__t)"/>
                </g>
                <g transform="translate(0 8) translate(0 .389) translate(9.23 5.538)">
                    <mask id="prefix__v" fill="#fff">
                        <use xlink:href="#prefix__u"/>
                    </mask>
                    <path fill="#6C6E70" d="M.603.605h.03C.717.605.775.597.809.578.84.559.863.527.872.479.884.43.879.392.854.372.828.349.777.34.695.34H.668L.603.605zM.565.723l-.098.414H.319L.538.212H.76c.067 0 .114.002.152.01.03.008.06.022.08.04.027.023.042.052.051.087.007.035.006.074-.003.116C1.022.54.99.597.94.64.892.683.832.707.755.717l.235.42H.81L.584.723H.565z" mask="url(#prefix__v)"/>
                </g>
                <g transform="translate(0 8) translate(0 .389) translate(10.154 5.538)">
                    <mask id="prefix__x" fill="#fff">
                        <use xlink:href="#prefix__w"/>
                    </mask>
                    <path fill="#6C6E70" d="M0.267 0.895L0.433 0.211 0.836 0.211 0.815 0.306 0.528 0.306 0.488 0.476 0.774 0.476 0.749 0.573 0.463 0.573 0.386 0.895z" mask="url(#prefix__x)"/>
                </g>
                <g transform="translate(0 8) translate(0 .389) translate(11.077 5.538)">
                    <mask id="prefix__z" fill="#fff">
                        <use xlink:href="#prefix__y"/>
                    </mask>
                    <path fill="#6C6E70" d="M.478.784H.75L.701.573C.698.558.695.543.694.526.69.508.69.49.688.466c-.01.022-.02.039-.03.057-.012.018-.02.033-.03.05l-.15.21zm.353.362L.775.91H.388l-.172.236H.05L.755.184 1 1.146H.831z" mask="url(#prefix__z)"/>
                </g>
                <g transform="translate(0 8) translate(0 .389) translate(12 5.538)">
                    <mask id="prefix__B" fill="#fff">
                        <use xlink:href="#prefix__A"/>
                    </mask>
                    <path fill="#6C6E70" d="M.891.377C.863.351.834.33.799.317.765.303.727.297.687.297c-.08 0-.15.023-.21.073C.416.418.374.48.357.556.34.63.349.691.386.74c.037.046.093.072.166.072C.595.811.636.803.68.788.72.775.763.752.805.723L.777.851C.74.87.7.888.66.897.622.907.58.914.536.914.48.914.43.905.39.89.346.87.31.846.282.813.255.779.238.742.228.697.221.651.222.605.234.553.247.505.268.457.297.413.327.37.363.33.409.297.45.264.5.24.55.22.6.204.653.196.707.196c.041 0 .082.005.117.017.036.01.07.03.101.053L.891.377z" mask="url(#prefix__B)"/>
                </g>
                <g transform="translate(0 8) translate(0 .389) translate(12.923 5.538)">
                    <mask id="prefix__D" fill="#fff">
                        <use xlink:href="#prefix__C"/>
                    </mask>
                    <path fill="#6C6E70" d="M0.295 0.895L0.46 0.211 0.864 0.211 0.841 0.306 0.554 0.306 0.513 0.479 0.8 0.479 0.776 0.573 0.49 0.573 0.437 0.796 0.723 0.796 0.699 0.895z" mask="url(#prefix__D)"/>
                </g>
                <g transform="translate(0 8) translate(0 .389) translate(13.846 5.538)">
                    <mask id="prefix__F" fill="#fff">
                        <use xlink:href="#prefix__E"/>
                    </mask>
                    <path fill="#6C6E70" d="M0.831 0.895L0.994 0.211 1.398 0.211 1.376 0.306 1.088 0.306 1.049 0.476 1.335 0.476 1.312 0.573 1.025 0.573 0.948 0.895z" mask="url(#prefix__F)"/>
                </g>
                <g transform="translate(0 8) translate(0 .389) translate(14.77 5.538)">
                    <mask id="prefix__H" fill="#fff">
                        <use xlink:href="#prefix__G"/>
                    </mask>
                    <path fill="#6C6E70" d="M1.682.68c.011-.044.014-.09.005-.13C1.679.503 1.66.466 1.636.436 1.61.403 1.578.378 1.539.359 1.5.344 1.456.336 1.407.336c-.048 0-.098.006-.144.023-.046.018-.09.044-.134.078-.043.03-.076.067-.103.111-.03.043-.05.088-.06.133C.954.728.954.773.963.816c.006.04.022.078.05.11.025.035.059.058.099.077.037.018.082.025.13.025s.096-.007.145-.025c.046-.019.09-.042.132-.076.043-.033.078-.07.104-.115.031-.04.049-.084.06-.131m.167 0c-.016.067-.043.13-.086.188-.039.058-.09.11-.15.155-.061.047-.127.083-.196.108-.071.024-.14.037-.209.037-.071 0-.136-.013-.194-.04-.057-.022-.107-.058-.146-.105C.83.98.804.928.792.87.78.811.783.75.798.681.816.614.842.55.884.494c.038-.057.09-.11.15-.156.062-.047.127-.082.195-.106.07-.024.142-.036.21-.036.073 0 .137.012.193.036.057.024.106.059.146.106.04.046.065.099.075.159.013.056.011.12-.004.184" mask="url(#prefix__H)"/>
                </g>
                <g transform="translate(0 8) translate(0 .389) translate(16.615 5.538)">
                    <mask id="prefix__J" fill="#fff">
                        <use xlink:href="#prefix__I"/>
                    </mask>
                    <path fill="#6C6E70" d="M.37.605H.4C.484.605.543.597.577.578.607.559.627.527.64.479.653.43.648.392.622.372.598.349.542.34.462.34H.434L.37.605zM.332.723l-.099.414H.083L.305.212H.53c.065 0 .116.002.149.01.034.008.062.022.081.04C.787.286.802.315.81.35.818.384.817.423.807.465.787.54.755.597.707.64.66.683.598.707.524.717l.236.42H.578L.35.723H.333z" mask="url(#prefix__J)"/>
                </g>
                <g transform="translate(0 8) translate(0 .389) translate(17.538 5.538)">
                    <mask id="prefix__L" fill="#fff">
                        <use xlink:href="#prefix__K"/>
                    </mask>
                    <path fill="#6C6E70" d="M1.318.557l.006-.043c0-.02.004-.035.006-.05-.009.016-.015.03-.026.045-.008.018-.02.032-.032.05L.995.922.895.55C.889.534.887.52.885.507L.881.464.865.51C.86.526.853.541.844.56l-.16.335H.577L.92.182l.11.432c0 .006.002.018.006.035.004.016.007.035.01.058l.052-.075.012-.018.313-.432.005.712h-.11V.557z" mask="url(#prefix__L)"/>
                </g>
                <g transform="translate(0 8) translate(0 .389) translate(19.385 5.538)">
                    <mask id="prefix__N" fill="#fff">
                        <use xlink:href="#prefix__M"/>
                    </mask>
                    <path fill="#6C6E70" d="M.918.68C.932.637.933.59.922.55.916.503.897.466.873.436.847.403.815.378.776.359.736.344.69.336.646.336.595.336.547.342.498.359.451.377.408.403.366.437.323.467.29.504.262.548.235.591.213.636.202.681.191.728.188.773.198.816c.007.04.023.078.05.11.025.035.06.058.098.077.039.018.084.025.131.025.049 0 .096-.007.144-.025C.668.984.712.961.755.927.796.894.83.857.86.812.886.772.907.728.918.68m.167 0C1.068.748 1.042.81 1 .869.961.927.91.98.85 1.024c-.062.047-.127.083-.198.108-.067.024-.137.037-.209.037-.07 0-.135-.013-.19-.04-.06-.022-.108-.058-.145-.105C.066.98.042.928.03.87.016.811.018.75.035.681.052.614.08.55.12.494.16.437.21.384.27.338.332.291.397.256.467.232.535.208.607.196.677.196c.07 0 .134.012.194.036.055.024.104.059.142.106.04.046.064.099.077.159.012.056.011.12-.005.184" mask="url(#prefix__N)"/>
                </g>
                <g transform="translate(0 8) translate(0 .389) translate(20.308 5.538)">
                    <mask id="prefix__P" fill="#fff">
                        <use xlink:href="#prefix__O"/>
                    </mask>
                    <path fill="#6C6E70" d="M.245.895l.17-.712.359.42c.01.01.019.024.03.038.01.013.019.028.029.045L.948.21h.106l-.168.71L.517.495C.506.485.497.473.489.46L.465.42.351.894H.245z" mask="url(#prefix__P)"/>
                </g>
                <g transform="translate(0 8) translate(0 .389) translate(21.23 5.538)">
                    <mask id="prefix__R" fill="#fff">
                        <use xlink:href="#prefix__Q"/>
                    </mask>
                    <path fill="#6C6E70" d="M0.442 0.895L0.605 0.211 1.009 0.211 0.987 0.306 0.699 0.306 0.659 0.479 0.946 0.479 0.923 0.573 0.636 0.573 0.582 0.796 0.869 0.796 0.846 0.895z" mask="url(#prefix__R)"/>
                </g>
                <g transform="translate(0 8) translate(0 .389) translate(22.154 5.538)">
                    <mask id="prefix__T" fill="#fff">
                        <use xlink:href="#prefix__S"/>
                    </mask>
                    <path fill="#6C6E70" d="M.52.895L.594.582.44.212h.125l.094.232c.004.006.007.013.01.022l.008.03C.684.488.692.48.698.468L.72.44.932.211h.118l-.34.37-.072.314H.52z" mask="url(#prefix__T)"/>
                </g>
            </g>
        </g>
    </g>
</svg>
