<?xml version="1.0" encoding="UTF-8"?>
<svg xmlns="http://www.w3.org/2000/svg" xmlns:xlink="http://www.w3.org/1999/xlink" width="24px" height="13px" viewBox="0 0 24 13" version="1.1">
<g id="surface1">
<path style=" stroke:none;fill-rule:nonzero;fill:rgb(100%,100%,100%);fill-opacity:1;" d="M 17.617188 0 L 6.382812 0 C 2.871094 0 0 2.925781 0 6.5 C 0 10.074219 2.871094 13 6.382812 13 L 17.617188 13 C 21.128906 13 24 10.074219 24 6.5 C 24 2.925781 21.128906 0 17.617188 0 Z M 17.617188 0 "/>
<path style=" stroke:none;fill-rule:nonzero;fill:rgb(23.529412%,25.098039%,26.27451%);fill-opacity:1;" d="M 17.617188 0.527344 C 18.40625 0.527344 19.171875 0.6875 19.890625 0.996094 C 20.589844 1.300781 21.21875 1.730469 21.757812 2.28125 C 22.300781 2.832031 22.722656 3.472656 23.019531 4.183594 C 23.328125 4.917969 23.484375 5.695312 23.484375 6.5 C 23.484375 7.304688 23.328125 8.082031 23.019531 8.816406 C 22.722656 9.527344 22.300781 10.164062 21.757812 10.71875 C 21.21875 11.269531 20.589844 11.699219 19.890625 12.003906 C 19.171875 12.3125 18.40625 12.472656 17.617188 12.472656 L 6.382812 12.472656 C 5.59375 12.472656 4.828125 12.3125 4.109375 12.003906 C 3.410156 11.699219 2.78125 11.269531 2.242188 10.71875 C 1.699219 10.167969 1.277344 9.527344 0.980469 8.816406 C 0.671875 8.082031 0.515625 7.304688 0.515625 6.5 C 0.515625 5.695312 0.671875 4.917969 0.980469 4.183594 C 1.277344 3.472656 1.699219 2.835938 2.242188 2.28125 C 2.78125 1.730469 3.410156 1.300781 4.109375 0.996094 C 4.828125 0.6875 5.59375 0.527344 6.382812 0.527344 L 17.617188 0.527344 M 17.617188 0 L 6.382812 0 C 2.871094 0 0 2.925781 0 6.5 C 0 10.074219 2.871094 13 6.382812 13 L 17.617188 13 C 21.128906 13 24 10.074219 24 6.5 C 24 2.925781 21.128906 0 17.617188 0 Z M 17.617188 0 "/>
<path style=" stroke:none;fill-rule:nonzero;fill:rgb(23.529412%,25.098039%,26.27451%);fill-opacity:1;" d="M 11.445312 6.960938 L 11.445312 8.929688 L 10.832031 8.929688 L 10.832031 4.070312 L 12.457031 4.070312 C 12.867188 4.070312 13.21875 4.210938 13.507812 4.492188 C 13.800781 4.769531 13.945312 5.113281 13.945312 5.515625 C 13.945312 5.929688 13.800781 6.269531 13.507812 6.546875 C 13.222656 6.820312 12.871094 6.957031 12.457031 6.957031 L 11.445312 6.957031 Z M 11.445312 4.671875 L 11.445312 6.363281 L 12.46875 6.363281 C 12.710938 6.363281 12.914062 6.277344 13.074219 6.113281 C 13.238281 5.949219 13.320312 5.746094 13.320312 5.519531 C 13.320312 5.292969 13.238281 5.097656 13.074219 4.929688 C 12.914062 4.757812 12.714844 4.671875 12.46875 4.671875 Z M 11.445312 4.671875 "/>
<path style=" stroke:none;fill-rule:nonzero;fill:rgb(23.529412%,25.098039%,26.27451%);fill-opacity:1;" d="M 15.550781 5.496094 C 16.003906 5.496094 16.359375 5.621094 16.621094 5.867188 C 16.882812 6.113281 17.015625 6.453125 17.015625 6.878906 L 17.015625 8.929688 L 16.429688 8.929688 L 16.429688 8.464844 L 16.402344 8.464844 C 16.152344 8.847656 15.8125 9.035156 15.390625 9.035156 C 15.03125 9.035156 14.730469 8.929688 14.488281 8.710938 C 14.246094 8.492188 14.125 8.222656 14.125 7.898438 C 14.125 7.554688 14.253906 7.28125 14.507812 7.078125 C 14.765625 6.875 15.105469 6.773438 15.53125 6.773438 C 15.894531 6.773438 16.195312 6.839844 16.425781 6.976562 L 16.425781 6.835938 C 16.425781 6.617188 16.34375 6.433594 16.175781 6.28125 C 16.003906 6.128906 15.808594 6.054688 15.582031 6.054688 C 15.238281 6.054688 14.96875 6.199219 14.769531 6.496094 L 14.230469 6.152344 C 14.527344 5.714844 14.96875 5.496094 15.550781 5.496094 Z M 14.757812 7.90625 C 14.757812 8.070312 14.824219 8.207031 14.960938 8.3125 C 15.097656 8.421875 15.253906 8.476562 15.4375 8.476562 C 15.695312 8.476562 15.925781 8.378906 16.125 8.183594 C 16.328125 7.988281 16.429688 7.761719 16.429688 7.496094 C 16.238281 7.34375 15.972656 7.265625 15.632812 7.265625 C 15.382812 7.265625 15.175781 7.328125 15.007812 7.449219 C 14.839844 7.574219 14.757812 7.726562 14.757812 7.90625 Z M 14.757812 7.90625 "/>
<path style=" stroke:none;fill-rule:nonzero;fill:rgb(23.529412%,25.098039%,26.27451%);fill-opacity:1;" d="M 20.347656 5.601562 L 18.304688 10.386719 L 17.671875 10.386719 L 18.429688 8.714844 L 17.085938 5.601562 L 17.75 5.601562 L 18.722656 7.988281 L 18.734375 7.988281 L 19.679688 5.601562 Z M 20.347656 5.601562 "/>
<path style=" stroke:none;fill-rule:nonzero;fill:rgb(25.882353%,52.156863%,95.686275%);fill-opacity:1;" d="M 9.007812 6.566406 C 9.007812 6.363281 8.988281 6.167969 8.957031 5.980469 L 6.386719 5.980469 L 6.386719 7.050781 L 7.867188 7.050781 C 7.808594 7.410156 7.613281 7.714844 7.316406 7.917969 L 7.316406 8.613281 L 8.199219 8.613281 C 8.710938 8.128906 9.007812 7.410156 9.007812 6.566406 Z M 9.007812 6.566406 "/>
<path style=" stroke:none;fill-rule:nonzero;fill:rgb(20.392157%,65.882353%,32.54902%);fill-opacity:1;" d="M 7.320312 7.917969 C 7.074219 8.085938 6.757812 8.183594 6.386719 8.183594 C 5.675781 8.183594 5.070312 7.695312 4.851562 7.035156 L 3.945312 7.035156 L 3.945312 7.75 C 4.394531 8.660156 5.320312 9.285156 6.386719 9.285156 C 7.125 9.285156 7.746094 9.039062 8.199219 8.613281 Z M 7.320312 7.917969 "/>
<path style=" stroke:none;fill-rule:nonzero;fill:rgb(98.039216%,73.333333%,1.960784%);fill-opacity:1;" d="M 4.769531 6.5 C 4.769531 6.316406 4.796875 6.136719 4.851562 5.96875 L 4.851562 5.25 L 3.945312 5.25 C 3.757812 5.628906 3.652344 6.050781 3.652344 6.5 C 3.652344 6.953125 3.757812 7.375 3.945312 7.75 L 4.851562 7.035156 C 4.796875 6.867188 4.769531 6.6875 4.769531 6.5 Z M 4.769531 6.5 "/>
<path style=" stroke:none;fill-rule:nonzero;fill:rgb(91.372549%,25.882353%,20.784314%);fill-opacity:1;" d="M 6.386719 4.820312 C 6.792969 4.820312 7.152344 4.960938 7.4375 5.238281 L 8.21875 4.445312 C 7.742188 3.992188 7.125 3.71875 6.386719 3.71875 C 5.320312 3.71875 4.394531 4.34375 3.945312 5.25 L 4.851562 5.96875 C 5.070312 5.308594 5.675781 4.820312 6.386719 4.820312 Z M 6.386719 4.820312 "/>
</g>
</svg>
