<svg xmlns="http://www.w3.org/2000/svg" width="24" height="24" viewBox="0 0 24 24">
    <g fill="none" fill-rule="evenodd">
        <path d="M0 0H24V24H0z"/>
        <path fill="#FFF" d="M12.242 1C6.033 1 1 5.913 1 11.974s5.033 10.974 11.242 10.974c6.208 0 11.242-4.913 11.242-10.974C23.484 5.914 18.451 1 12.242 1z"/>
        <path fill="#673AB7" d="M11.743.538C18.228.538 23.485 5.67 23.485 12s-5.258 11.462-11.743 11.462C5.258 23.462.001 18.331.001 12 0 5.67 5.258.538 11.743.538zm-.976 2.866H9.63c-.093 0-.163.023-.21.068-.046.046-.07.114-.07.205 0 .049.007.096.02.141.013.045.03.09.055.132l.522.755.523.757c.345.501.704.977 1.076 1.43.372.452.758.88 1.155 1.283H7.204c-.119 0-.207.028-.266.083-.06.053-.09.136-.09.245v.765c0 .122.03.213.09.273.059.06.147.092.266.092h1.082c.056.005.098.026.126.063.028.037.042.089.042.155v3.97c0 .425.065.805.194 1.141.129.335.322.627.58.872.258.246.56.43.904.553.343.123.73.184 1.159.184h.54c.424 0 .778-.063 1.064-.19.286-.128.504-.32.654-.574h.074v3.37c0 .116.03.202.088.259.06.058.148.087.266.087h.989c.118 0 .207-.03.266-.087.059-.057.089-.144.089-.26V9.852c0-.073.017-.128.05-.164.035-.037.086-.054.155-.054h1.231c.119 0 .207-.03.266-.087.06-.058.089-.144.089-.26v-.783c0-.11-.03-.191-.088-.245-.06-.056-.148-.083-.266-.083h-2.351c-.093 0-.18-.025-.261-.077-.081-.05-.156-.128-.225-.232l-1.334-2.094-1.334-2.095c-.05-.09-.115-.16-.196-.205-.081-.045-.178-.068-.29-.068zm2.65 6.228c.07 0 .12.018.154.055.035.036.052.091.052.164v3.77c0 .225-.033.425-.096.604-.064.177-.16.33-.288.461-.127.13-.288.229-.482.294-.194.065-.422.098-.683.098h-.504c-.472 0-.827-.119-1.063-.356-.237-.236-.355-.591-.355-1.065V9.85c0-.072.017-.127.05-.164.035-.036.086-.054.155-.054z"/>
    </g>
</svg>
